<svg xmlns="http://www.w3.org/2000/svg" width="180" height="59" viewBox="0 0 180 59">
  <g fill="none" fill-rule="evenodd" transform="translate(-30 -91)">
    <rect width="240" height="240"/>
    <g fill="#FFFFFE" fill-rule="nonzero" transform="translate(30 91)">
      <path d="M12.564878,33.8540488 C14.8723902,33.8540488 16.8163902,33.5932683 18.396878,33.0717073 C19.9773659,32.5501463 21.257561,31.8389268 22.2374634,30.9380488 C23.2173659,30.0371707 23.9206829,28.9703415 24.3474146,27.737561 C24.7741463,26.5047805 24.9875122,25.1929756 24.9875122,23.8021463 C24.9875122,23.0435122 24.9084878,22.2927805 24.750439,21.5499512 C24.5923902,20.807122 24.3079024,20.0959024 23.8969756,19.4162927 C23.4860488,18.7366829 22.932878,18.0965854 22.2374634,17.496 C21.5420488,16.8954146 20.6569756,16.3580488 19.5822439,15.8839024 C21.257561,15.0936585 22.4113171,14.0900488 23.0435122,12.8730732 C23.6757073,11.6560976 23.9918049,10.3363902 23.9918049,8.91395122 C23.9918049,7.68117073 23.8179512,6.5195122 23.4702439,5.42897561 C23.1225366,4.33843902 22.482439,3.39014634 21.5499512,2.58409756 C20.6174634,1.77804878 19.3609756,1.14585366 17.7804878,0.687512195 C16.2,0.229170732 14.1769756,-1.24778237e-14 11.7114146,-1.24778237e-14 L11.7114146,-1.24778237e-14 L-2.49556473e-14,-1.24778237e-14 L-2.49556473e-14,33.8540488 L12.564878,33.8540488 Z M12.3752195,13.8924878 L5.5475122,13.8924878 L5.5475122,4.55180488 L11.5217561,4.55180488 C14.0505366,4.55180488 15.8285854,4.90741463 16.8559024,5.61863415 C17.8832195,6.32985366 18.396878,7.4915122 18.396878,9.10360976 C18.396878,10.6524878 17.9543415,11.8378537 17.0692683,12.6597073 C16.1841951,13.481561 14.6195122,13.8924878 12.3752195,13.8924878 L12.3752195,13.8924878 Z M12.3752195,29.2548293 L5.5475122,29.2548293 L5.5475122,18.5865366 L12.8967805,18.5865366 C15.2675122,18.5865366 16.9349268,19.0369756 17.8990244,19.9378537 C18.863122,20.8387317 19.3451707,22.1426341 19.3451707,23.849561 C19.3451707,24.6714146 19.2345366,25.4142439 19.0132683,26.0780488 C18.792,26.7418537 18.4205854,27.3108293 17.8990244,27.7849756 C17.3774634,28.259122 16.6662439,28.6226341 15.7653659,28.8755122 C14.8644878,29.1283902 13.734439,29.2548293 12.3752195,29.2548293 L12.3752195,29.2548293 Z M35.3713171,5.35785366 L35.3713171,-1.24778237e-14 L29.7763902,-1.24778237e-14 L29.7763902,5.35785366 L35.3713171,5.35785366 Z M35.2764878,33.8540488 L35.2764878,9.19843902 L29.8712195,9.19843902 L29.8712195,33.8540488 L35.2764878,33.8540488 Z M46.9404878,33.8540488 L46.9404878,-1.24778237e-14 L41.5352195,-1.24778237e-14 L41.5352195,33.8540488 L46.9404878,33.8540488 Z M58.6044878,33.8540488 L58.6044878,-1.24778237e-14 L53.1992195,-1.24778237e-14 L53.1992195,33.8540488 L58.6044878,33.8540488 Z M81.648,33.8540488 L81.648,19.4874146 L96.5836098,19.4874146 L96.5836098,14.508878 L81.648,14.508878 L81.648,4.93112195 L97.5319024,4.93112195 L97.5319024,-1.24778237e-14 L75.9108293,-1.24778237e-14 L75.9108293,33.8540488 L81.648,33.8540488 Z M109.527805,34.6126829 C111.045073,34.6126829 112.467512,34.2649756 113.795122,33.569561 C115.122732,32.8741463 116.355512,31.7678049 117.493463,30.2505366 L117.493463,30.2505366 L117.493463,33.8540488 L122.756488,33.8540488 L122.756488,9.19843902 L117.35122,9.19843902 L117.35122,23.8969756 C117.35122,24.8452683 117.161561,25.6987317 116.782244,26.4573659 C116.402927,27.216 115.912976,27.864 115.31239,28.4013659 C114.711805,28.9387317 114.024293,29.3496585 113.249854,29.6341463 C112.475415,29.9186341 111.708878,30.060878 110.950244,30.060878 C109.559415,30.060878 108.524195,29.681561 107.844585,28.9229268 C107.164976,28.1642927 106.825171,26.7576585 106.825171,24.7030244 L106.825171,24.7030244 L106.825171,9.19843902 L101.467317,9.19843902 L101.467317,25.5564878 C101.467317,28.6226341 102.09161,30.8985366 103.340195,32.3841951 C104.58878,33.8698537 106.651317,34.6126829 109.527805,34.6126829 Z M134.230829,33.8540488 L134.230829,19.1555122 C134.230829,18.3336585 134.39678,17.5513171 134.728683,16.8084878 C135.060585,16.0656585 135.511024,15.4097561 136.08,14.8407805 C136.648976,14.2718049 137.336488,13.8213659 138.142537,13.4894634 C138.948585,13.157561 139.825756,12.9916098 140.774049,12.9916098 C142.196488,12.9916098 143.27122,13.3946341 143.998244,14.2006829 C144.725268,15.0067317 145.08878,16.4054634 145.08878,18.396878 L145.08878,18.396878 L145.08878,33.8540488 L150.494049,33.8540488 L150.494049,17.5434146 C150.494049,11.4743415 147.744,8.43980488 142.243902,8.43980488 C140.663415,8.43980488 139.185659,8.7875122 137.810634,9.48292683 C136.43561,10.1783415 135.194927,11.2846829 134.088585,12.8019512 L134.088585,12.8019512 L134.088585,9.19843902 L128.872976,9.19843902 L128.872976,33.8540488 L134.230829,33.8540488 Z M161.683902,33.8540488 L161.683902,24.2762927 L165.714146,20.6727805 L173.395317,33.8540488 L179.322146,33.8540488 L169.602146,17.5908293 L178.516098,9.19843902 L172.209951,9.19843902 L161.683902,18.7287805 L161.683902,-1.24778237e-14 L156.420878,-1.24778237e-14 L156.420878,33.8540488 L161.683902,33.8540488 Z"/>
      <path d="M2.53125,14.823 L2.53125,9.639 L6.6825,9.639 C8.7345,9.639 10.26,9.25425 11.259,8.48475 C12.258,7.71525 12.7575,6.5475 12.7575,4.9815 C12.7575,3.456 12.268125,2.305125 11.289375,1.528875 C10.310625,0.752625 8.856,0.3645 6.9255,0.3645 L6.9255,0.3645 L3.19744231e-14,0.3645 L3.19744231e-14,14.823 L2.53125,14.823 Z M6.70275,7.533 L2.53125,7.533 L2.53125,2.4705 L6.74325,2.4705 C7.91775,2.4705 8.78175,2.66625 9.33525,3.05775 C9.88875,3.44925 10.1655,4.077 10.1655,4.941 C10.1655,5.832 9.882,6.48675 9.315,6.90525 C8.748,7.32375 7.87725,7.533 6.70275,7.533 L6.70275,7.533 Z M17.982,14.823 L17.982,8.505 L26.70975,8.505 L26.70975,14.823 L29.2815,14.823 L29.2815,0.3645 L26.70975,0.3645 L26.70975,6.1965 L17.982,6.1965 L17.982,0.3645 L15.41025,0.3645 L15.41025,14.823 L17.982,14.823 Z M40.27725,15.1875 C41.96475,15.1875 43.4295,14.87025 44.6715,14.23575 C45.9135,13.60125 46.861875,12.713625 47.516625,11.572875 C48.171375,10.432125 48.49875,9.10575 48.49875,7.59375 C48.49875,6.02775 48.157875,4.671 47.476125,3.5235 C46.794375,2.376 45.835875,1.501875 44.600625,0.901125 C43.365375,0.300375 41.93775,0 40.31775,0 C38.63025,0 37.1655,0.31725 35.9235,0.95175 C34.6815,1.58625 33.733125,2.473875 33.078375,3.614625 C32.423625,4.755375 32.09625,6.08175 32.09625,7.59375 C32.09625,9.15975 32.437125,10.5165 33.118875,11.664 C33.800625,12.8115 34.759125,13.685625 35.994375,14.286375 C37.229625,14.887125 38.65725,15.1875 40.27725,15.1875 Z M40.27725,13.041 C38.52225,13.041 37.162125,12.56175 36.196875,11.60325 C35.231625,10.64475 34.749,9.30825 34.749,7.59375 C34.749,5.87925 35.238375,4.54275 36.217125,3.58425 C37.195875,2.62575 38.56275,2.1465 40.31775,2.1465 C42.07275,2.1465 43.432875,2.62575 44.398125,3.58425 C45.363375,4.54275 45.846,5.87925 45.846,7.59375 C45.846,9.30825 45.356625,10.64475 44.377875,11.60325 C43.399125,12.56175 42.03225,13.041 40.27725,13.041 Z M57.53025,14.823 L57.53025,2.53125 L63.36225,2.53125 L63.36225,0.3645 L49.1265,0.3645 L49.1265,2.53125 L54.9585,2.53125 L54.9585,14.823 L57.53025,14.823 Z M72.15075,15.1875 C73.83825,15.1875 75.303,14.87025 76.545,14.23575 C77.787,13.60125 78.735375,12.713625 79.390125,11.572875 C80.044875,10.432125 80.37225,9.10575 80.37225,7.59375 C80.37225,6.02775 80.031375,4.671 79.349625,3.5235 C78.667875,2.376 77.709375,1.501875 76.474125,0.901125 C75.238875,0.300375 73.81125,0 72.19125,0 C70.50375,0 69.039,0.31725 67.797,0.95175 C66.555,1.58625 65.606625,2.473875 64.951875,3.614625 C64.297125,4.755375 63.96975,6.08175 63.96975,7.59375 C63.96975,9.15975 64.310625,10.5165 64.992375,11.664 C65.674125,12.8115 66.632625,13.685625 67.867875,14.286375 C69.103125,14.887125 70.53075,15.1875 72.15075,15.1875 Z M72.15075,13.041 C70.39575,13.041 69.035625,12.56175 68.070375,11.60325 C67.105125,10.64475 66.6225,9.30825 66.6225,7.59375 C66.6225,5.87925 67.111875,4.54275 68.090625,3.58425 C69.069375,2.62575 70.43625,2.1465 72.19125,2.1465 C73.94625,2.1465 75.306375,2.62575 76.271625,3.58425 C77.236875,4.54275 77.7195,5.87925 77.7195,7.59375 C77.7195,9.30825 77.230125,10.64475 76.251375,11.60325 C75.272625,12.56175 73.90575,13.041 72.15075,13.041 Z M90.98325,15.1875 C92.29275,15.1875 93.551625,15.015375 94.759875,14.671125 C95.968125,14.326875 97.00425,13.8375 97.86825,13.203 L97.86825,13.203 L97.86825,7.10775 L91.06425,7.10775 L91.06425,9.234 L95.4585,9.234 L95.4585,12.12975 C94.2975,12.75075 92.8125,13.06125 91.0035,13.06125 C89.154,13.06125 87.739875,12.592125 86.761125,11.653875 C85.782375,10.715625 85.293,9.369 85.293,7.614 C85.293,5.886 85.762125,4.539375 86.700375,3.574125 C87.638625,2.608875 88.95825,2.12625 90.65925,2.12625 C91.79325,2.12625 92.718,2.332125 93.4335,2.743875 C94.149,3.155625 94.66875,3.7935 94.99275,4.6575 L94.99275,4.6575 L97.54425,4.293 C97.11225,2.916 96.312375,1.85625 95.144625,1.11375 C93.976875,0.37125 92.502,0 90.72,0 C89.0595,0 87.618375,0.31725 86.396625,0.95175 C85.174875,1.58625 84.243375,2.47725 83.602125,3.62475 C82.960875,4.77225 82.64025,6.1155 82.64025,7.6545 C82.64025,9.234 82.981125,10.587375 83.662875,11.714625 C84.344625,12.841875 85.309875,13.7025 86.558625,14.2965 C87.807375,14.8905 89.28225,15.1875 90.98325,15.1875 Z M103.4775,14.823 L103.4775,9.153 L108.023625,9.153 C108.138375,9.153 108.2565,9.14625 108.378,9.13275 L108.378,9.13275 L111.63825,14.823 L114.534,14.823 L110.889,8.64675 C112.779,8.01225 113.724,6.71625 113.724,4.75875 C113.724,1.82925 111.78675,0.3645 107.91225,0.3645 L107.91225,0.3645 L101.007,0.3645 L101.007,14.823 L103.4775,14.823 Z M107.75025,7.06725 L103.4775,7.06725 L103.4775,2.45025 L107.79075,2.45025 C108.97875,2.45025 109.839375,2.629125 110.372625,2.986875 C110.905875,3.344625 111.1725,3.9285 111.1725,4.7385 C111.1725,5.535 110.892375,6.12225 110.332125,6.50025 C109.771875,6.87825 108.91125,7.06725 107.75025,7.06725 L107.75025,7.06725 Z M117.87525,14.823 L119.556,11.19825 L127.19025,11.19825 L128.85075,14.823 L131.625,14.823 L124.80075,0.3645 L122.00625,0.3645 L115.182,14.823 L117.87525,14.823 Z M126.2385,9.09225 L120.447,9.09225 L123.363,2.81475 L126.2385,9.09225 Z M136.34325,14.823 L136.34325,9.639 L140.4945,9.639 C142.5465,9.639 144.072,9.25425 145.071,8.48475 C146.07,7.71525 146.5695,6.5475 146.5695,4.9815 C146.5695,3.456 146.080125,2.305125 145.101375,1.528875 C144.122625,0.752625 142.668,0.3645 140.7375,0.3645 L140.7375,0.3645 L133.812,0.3645 L133.812,14.823 L136.34325,14.823 Z M140.51475,7.533 L136.34325,7.533 L136.34325,2.4705 L140.55525,2.4705 C141.72975,2.4705 142.59375,2.66625 143.14725,3.05775 C143.70075,3.44925 143.9775,4.077 143.9775,4.941 C143.9775,5.832 143.694,6.48675 143.127,6.90525 C142.56,7.32375 141.68925,7.533 140.51475,7.533 L140.51475,7.533 Z M151.794,14.823 L151.794,8.505 L160.52175,8.505 L160.52175,14.823 L163.0935,14.823 L163.0935,0.3645 L160.52175,0.3645 L160.52175,6.1965 L151.794,6.1965 L151.794,0.3645 L149.22225,0.3645 L149.22225,14.823 L151.794,14.823 Z M173.6235,14.823 L173.6235,8.88975 L179.79975,0.3645 L176.92425,0.3645 L172.38825,6.78375 L167.832,0.3645 L164.8755,0.3645 L171.05175,8.88975 L171.05175,14.823 L173.6235,14.823 Z" transform="translate(0 43)"/>
    </g>
  </g>
</svg>
